<svg width="24" height="24" xmlns="http://www.w3.org/2000/svg">
    <g fill-rule="nonzero" fill="none">
        <path d="M0 0h24v24H0z"/>
        <path d="m18.944 5.318-1.786-1.824A1.636 1.636 0 0 0 15.988 3h-5.927c-.913 0-1.653.756-1.653 1.688v1.687H5.653C4.74 6.375 4 7.131 4 8.063v11.25C4 20.244 4.74 21 5.653 21h7.714c.913 0 1.653-.756 1.653-1.688v-1.687h2.756c.912 0 1.653-.756 1.653-1.688V6.511c0-.447-.175-.876-.485-1.193zm-2.822-1.176a.544.544 0 0 1 .256.148l1.787 1.824c.07.072.12.162.145.261h-2.188V4.142zm-2.204 15.17c0 .31-.247.563-.55.563H5.652a.557.557 0 0 1-.551-.563V8.063c0-.31.247-.562.551-.562h2.755v8.438c0 .931.74 1.687 1.653 1.687h3.857v1.688zm4.409-3.375c0 .31-.248.563-.551.563H10.06a.557.557 0 0 1-.55-.563V4.688c0-.31.246-.562.55-.562h4.96v2.531c0 .464.371.844.826.844h2.48v8.438z" fill="#000"/>
    </g>
</svg>
