<svg width="24" height="24" xmlns="http://www.w3.org/2000/svg">
    <path d="M14.531 18.429h.57a.285.285 0 0 0 .285-.286V8.429a.285.285 0 0 0-.285-.286h-.57a.285.285 0 0 0-.285.286v9.714c0 .158.128.286.285.286zm-5.698 0h.57a.285.285 0 0 0 .284-.286V8.429a.285.285 0 0 0-.285-.286h-.57a.285.285 0 0 0-.284.286v9.714c0 .158.127.286.285.286zM19.66 5.286h-3.704l-1.197-1.6A1.708 1.708 0 0 0 13.391 3h-2.849c-.538 0-1.045.254-1.367.686l-1.197 1.6H4.274a.285.285 0 0 0-.285.285v.572c0 .158.127.286.285.286h.855V19.57c0 .947.765 1.715 1.71 1.715h10.256c.945 0 1.71-.768 1.71-1.715V6.43h.855a.285.285 0 0 0 .285-.286V5.57a.285.285 0 0 0-.285-.285zm-9.574-.915a.573.573 0 0 1 .456-.228h2.85c.179 0 .347.085.455.228l.684.915H9.402l.684-.915zm7.58 15.2a.57.57 0 0 1-.57.572H6.837a.57.57 0 0 1-.57-.572V6.43h11.397V19.57zm-5.984-1.142h.57a.285.285 0 0 0 .285-.286V8.429a.285.285 0 0 0-.285-.286h-.57a.285.285 0 0 0-.285.286v9.714c0 .158.127.286.285.286z" fill="#F12" fill-rule="nonzero"/>
</svg>
