<svg width="24" height="24" xmlns="http://www.w3.org/2000/svg">
    <path d="m2.39 11.847 6.187 6.469c.87.908 2.423.302 2.423-.972v-3.088c5.429.063 7.701.588 6.37 5.311-.293 1.038.895 1.837 1.747 1.214 1.17-.856 3.133-2.798 3.133-6.138 0-6.014-5.433-7.067-11.25-7.137v-3.1c0-1.274-1.554-1.879-2.423-.971L2.39 9.903c-.52.544-.52 1.4 0 1.944zm.813-1.166 6.188-6.47a.281.281 0 0 1 .484.195v4.219c5.524 0 11.25.393 11.25 6.018 0 2.616-1.406 4.295-2.673 5.221 1.805-6.398-2.551-6.739-8.577-6.739v4.219a.281.281 0 0 1-.484.194L3.203 11.07a.28.28 0 0 1 0-.388z" fill="#000" fill-rule="nonzero"/>
</svg>
