<svg width="24" height="24" xmlns="http://www.w3.org/2000/svg">
    <path d="m20.208 11.422 1.72-1.701a.246.246 0 0 0 0-.35l-.354-.349a.253.253 0 0 0-.353 0l-1.719 1.701-1.719-1.7a.253.253 0 0 0-.353 0l-.353.349a.246.246 0 0 0 0 .349l1.719 1.7-1.72 1.702a.246.246 0 0 0 0 .35l.354.349a.253.253 0 0 0 .353 0l1.72-1.701 1.718 1.7a.253.253 0 0 0 .353 0l.353-.349a.246.246 0 0 0 0-.35l-1.719-1.7zm-11.207.495c2.21 0 4-1.772 4-3.959 0-2.186-1.79-3.958-4-3.958S5 5.772 5 7.958c0 2.187 1.79 3.959 4 3.959zM9 4.99c1.653 0 3 1.332 3 2.968s-1.347 2.97-3 2.97-3-1.334-3-2.97C6 6.322 7.347 4.99 9 4.99zm2.8 7.916c-.897 0-1.328.495-2.8.495-1.472 0-1.9-.495-2.8-.495C3.88 12.906 2 14.768 2 17.062v1.287c0 .82.672 1.484 1.5 1.484h11.001c.829 0 1.5-.665 1.5-1.484v-1.287c0-2.294-1.88-4.156-4.2-4.156zm3.2 5.443a.499.499 0 0 1-.5.495h-11a.499.499 0 0 1-.5-.495v-1.287c0-1.747 1.434-3.166 3.2-3.166.612 0 1.222.495 2.8.495 1.575 0 2.188-.495 2.8-.495 1.766 0 3.2 1.42 3.2 3.166v1.287z" fill="#000" fill-rule="nonzero"/>
</svg>
